# xmcd
#
# Track frame offsets:
#	150
#	17537
#	38112
#	56305
#	69197
#	85854
#	104660
#	116522
#	138335
#	152202
#	170717
#	188857
#	205092
#	227812
#	246420
#
# Disc length: 3599 seconds
#
# Revision: 1
# Processed by: cddbd v1.5.1PL0 Copyright (c) Steve Scherf et al.
# Submitted via: audiograbber 1.82.02
#
DISCID=c80e0d0f
DTITLE=Various Artist - Sound Choice 8326 80's Male Country  Hits Vol 1 
DYEAR=1900
DGENRE=Karaoke
TTITLE0=T.G. Sheppard - War is hell ( on the home front too )
TTITLE1=Ronnie Milsap - She keeps the home fires burning
TTITLE2=Kenny Rogers - Love will turn you around
TTITLE3=George Strait - The Fireman
TTITLE4=Ricky Skaggs - Honey ( Open that door )
TTITLE5=Alabama - Close enough to perfect
TTITLE6=Mac Davis - You're my bestest friend
TTITLE7=John Denver - Some days are like diamonds ( some days are stones )
TTITLE8=Larry Gatlin and the Gatlin Brothers - Take me to your lovin' place
TTITLE9=Ed Bruce - You turn me on ( like a radio )
TTITLE10=Don Williams - Love is on a roll
TTITLE11=Lee Greenwood - Going, going, gone
TTITLE12=Earl Thomas Conley - I can't win for losin' you
TTITLE13=Conway Twitty - Somebody's needin' somebody
TTITLE14=Willie Nelson - Last thing I need first thing this morning
EXTD=
EXTT0=
EXTT1=
EXTT2=
EXTT3=
EXTT4=
EXTT5=
EXTT6=
EXTT7=
EXTT8=
EXTT9=
EXTT10=
EXTT11=
EXTT12=
EXTT13=
EXTT14=
PLAYORDER=
